<svg id="visual" viewBox="0 0 900 600" width="900" height="600" xmlns="http://www.w3.org/2000/svg" xmlns:xlink="http://www.w3.org/1999/xlink" version="1.1"><path d="M0 422L21.5 413.8C43 405.7 86 389.3 128.8 390.8C171.7 392.3 214.3 411.7 257.2 423.2C300 434.7 343 438.3 385.8 429.3C428.7 420.3 471.3 398.7 514.2 387.8C557 377 600 377 642.8 377.5C685.7 378 728.3 379 771.2 388C814 397 857 414 878.5 422.5L900 431L900 601L878.5 601C857 601 814 601 771.2 601C728.3 601 685.7 601 642.8 601C600 601 557 601 514.2 601C471.3 601 428.7 601 385.8 601C343 601 300 601 257.2 601C214.3 601 171.7 601 128.8 601C86 601 43 601 21.5 601L0 601Z" fill="#fa7268"></path><path d="M0 466L21.5 466C43 466 86 466 128.8 460.5C171.7 455 214.3 444 257.2 445.5C300 447 343 461 385.8 464.3C428.7 467.7 471.3 460.3 514.2 449.7C557 439 600 425 642.8 426.5C685.7 428 728.3 445 771.2 444.8C814 444.7 857 427.3 878.5 418.7L900 410L900 601L878.5 601C857 601 814 601 771.2 601C728.3 601 685.7 601 642.8 601C600 601 557 601 514.2 601C471.3 601 428.7 601 385.8 601C343 601 300 601 257.2 601C214.3 601 171.7 601 128.8 601C86 601 43 601 21.5 601L0 601Z" fill="#ef5f67"></path><path d="M0 468L21.5 472.3C43 476.7 86 485.3 128.8 492.5C171.7 499.7 214.3 505.3 257.2 507.3C300 509.3 343 507.7 385.8 496.5C428.7 485.3 471.3 464.7 514.2 462.8C557 461 600 478 642.8 483.7C685.7 489.3 728.3 483.7 771.2 477C814 470.3 857 462.7 878.5 458.8L900 455L900 601L878.5 601C857 601 814 601 771.2 601C728.3 601 685.7 601 642.8 601C600 601 557 601 514.2 601C471.3 601 428.7 601 385.8 601C343 601 300 601 257.2 601C214.3 601 171.7 601 128.8 601C86 601 43 601 21.5 601L0 601Z" fill="#e34c67"></path><path d="M0 536L21.5 536.5C43 537 86 538 128.8 535.2C171.7 532.3 214.3 525.7 257.2 521.2C300 516.7 343 514.3 385.8 508.7C428.7 503 471.3 494 514.2 497.5C557 501 600 517 642.8 523.3C685.7 529.7 728.3 526.3 771.2 518.7C814 511 857 499 878.5 493L900 487L900 601L878.5 601C857 601 814 601 771.2 601C728.3 601 685.7 601 642.8 601C600 601 557 601 514.2 601C471.3 601 428.7 601 385.8 601C343 601 300 601 257.2 601C214.3 601 171.7 601 128.8 601C86 601 43 601 21.5 601L0 601Z" fill="#d53867"></path><path d="M0 548L21.5 546.7C43 545.3 86 542.7 128.8 541.3C171.7 540 214.3 540 257.2 542.7C300 545.3 343 550.7 385.8 556.3C428.7 562 471.3 568 514.2 570C557 572 600 570 642.8 565.8C685.7 561.7 728.3 555.3 771.2 549.2C814 543 857 537 878.5 534L900 531L900 601L878.5 601C857 601 814 601 771.2 601C728.3 601 685.7 601 642.8 601C600 601 557 601 514.2 601C471.3 601 428.7 601 385.8 601C343 601 300 601 257.2 601C214.3 601 171.7 601 128.8 601C86 601 43 601 21.5 601L0 601Z" fill="#c62368"></path></svg>